<mxfile host="app.diagrams.net" agent="Mozilla/5.0 (Windows NT 10.0; Win64; x64) AppleWebKit/537.36 (KHTML, like Gecko) Chrome/138.0.0.0 YaBrowser/25.8.0.0 Safari/537.36" version="28.1.2">
  <diagram name="Страница — 1" id="2DYOa_ZJoDetYjfo0d46">
    <mxGraphModel dx="1819" dy="545" grid="1" gridSize="10" guides="1" tooltips="1" connect="1" arrows="1" fold="1" page="1" pageScale="1" pageWidth="827" pageHeight="1169" math="0" shadow="0">
      <root>
        <mxCell id="0" />
        <mxCell id="1" parent="0" />
        <mxCell id="8QUW1PWuyOzQRffvTLw3-3" value="Tanchiki.Navigation" style="swimlane;whiteSpace=wrap;html=1;startSize=50;" parent="1" vertex="1">
          <mxGeometry x="-40" y="100" width="2210" height="870" as="geometry" />
        </mxCell>
        <mxCell id="w1ibGSSZmLzrK6lH3_LJ-1" value="MainMenuManager : MonoBehaviour" style="swimlane;fontStyle=1;align=center;verticalAlign=top;childLayout=stackLayout;horizontal=1;startSize=30;horizontalStack=0;resizeParent=1;resizeParentMax=0;resizeLast=0;collapsible=1;marginBottom=0;whiteSpace=wrap;html=1;" parent="8QUW1PWuyOzQRffvTLw3-3" vertex="1">
          <mxGeometry x="100" y="90" width="386" height="298" as="geometry">
            <mxRectangle x="290" y="210" width="100" height="30" as="alternateBounds" />
          </mxGeometry>
        </mxCell>
        <mxCell id="w1ibGSSZmLzrK6lH3_LJ-2" value="- TEMPLATE_BUILD_INDEX : i&lt;span style=&quot;background-color: transparent; color: light-dark(rgb(0, 0, 0), rgb(255, 255, 255));&quot;&gt;nt&lt;/span&gt;" style="text;strokeColor=none;fillColor=none;align=left;verticalAlign=top;spacingLeft=4;spacingRight=4;overflow=hidden;rotatable=0;points=[[0,0.5],[1,0.5]];portConstraint=eastwest;whiteSpace=wrap;html=1;" parent="w1ibGSSZmLzrK6lH3_LJ-1" vertex="1">
          <mxGeometry y="30" width="386" height="26" as="geometry" />
        </mxCell>
        <mxCell id="8QUW1PWuyOzQRffvTLw3-4" value="- mainMenuPanel : GameObject" style="text;strokeColor=none;fillColor=none;align=left;verticalAlign=top;spacingLeft=4;spacingRight=4;overflow=hidden;rotatable=0;points=[[0,0.5],[1,0.5]];portConstraint=eastwest;whiteSpace=wrap;html=1;" parent="w1ibGSSZmLzrK6lH3_LJ-1" vertex="1">
          <mxGeometry y="56" width="386" height="26" as="geometry" />
        </mxCell>
        <mxCell id="8QUW1PWuyOzQRffvTLw3-6" value="- settingsPanel : GameObject" style="text;strokeColor=none;fillColor=none;align=left;verticalAlign=top;spacingLeft=4;spacingRight=4;overflow=hidden;rotatable=0;points=[[0,0.5],[1,0.5]];portConstraint=eastwest;whiteSpace=wrap;html=1;" parent="w1ibGSSZmLzrK6lH3_LJ-1" vertex="1">
          <mxGeometry y="82" width="386" height="26" as="geometry" />
        </mxCell>
        <mxCell id="8QUW1PWuyOzQRffvTLw3-7" value="- levelSelectPanel : GameObject" style="text;strokeColor=none;fillColor=none;align=left;verticalAlign=top;spacingLeft=4;spacingRight=4;overflow=hidden;rotatable=0;points=[[0,0.5],[1,0.5]];portConstraint=eastwest;whiteSpace=wrap;html=1;" parent="w1ibGSSZmLzrK6lH3_LJ-1" vertex="1">
          <mxGeometry y="108" width="386" height="26" as="geometry" />
        </mxCell>
        <mxCell id="w1ibGSSZmLzrK6lH3_LJ-3" value="" style="line;strokeWidth=1;fillColor=none;align=left;verticalAlign=middle;spacingTop=-1;spacingLeft=3;spacingRight=3;rotatable=0;labelPosition=right;points=[];portConstraint=eastwest;strokeColor=inherit;" parent="w1ibGSSZmLzrK6lH3_LJ-1" vertex="1">
          <mxGeometry y="134" width="386" height="8" as="geometry" />
        </mxCell>
        <mxCell id="w1ibGSSZmLzrK6lH3_LJ-4" value="+ OpenLevelSelect() : void" style="text;strokeColor=none;fillColor=none;align=left;verticalAlign=top;spacingLeft=4;spacingRight=4;overflow=hidden;rotatable=0;points=[[0,0.5],[1,0.5]];portConstraint=eastwest;whiteSpace=wrap;html=1;" parent="w1ibGSSZmLzrK6lH3_LJ-1" vertex="1">
          <mxGeometry y="142" width="386" height="26" as="geometry" />
        </mxCell>
        <mxCell id="8QUW1PWuyOzQRffvTLw3-8" value="+ OpenMainMenu() : void" style="text;strokeColor=none;fillColor=none;align=left;verticalAlign=top;spacingLeft=4;spacingRight=4;overflow=hidden;rotatable=0;points=[[0,0.5],[1,0.5]];portConstraint=eastwest;whiteSpace=wrap;html=1;" parent="w1ibGSSZmLzrK6lH3_LJ-1" vertex="1">
          <mxGeometry y="168" width="386" height="26" as="geometry" />
        </mxCell>
        <mxCell id="8QUW1PWuyOzQRffvTLw3-9" value="+ OpenSettings() : void" style="text;strokeColor=none;fillColor=none;align=left;verticalAlign=top;spacingLeft=4;spacingRight=4;overflow=hidden;rotatable=0;points=[[0,0.5],[1,0.5]];portConstraint=eastwest;whiteSpace=wrap;html=1;" parent="w1ibGSSZmLzrK6lH3_LJ-1" vertex="1">
          <mxGeometry y="194" width="386" height="26" as="geometry" />
        </mxCell>
        <mxCell id="8QUW1PWuyOzQRffvTLw3-49" value="+ StartGame(int levelBuildIndex) : void" style="text;strokeColor=none;fillColor=none;align=left;verticalAlign=top;spacingLeft=4;spacingRight=4;overflow=hidden;rotatable=0;points=[[0,0.5],[1,0.5]];portConstraint=eastwest;whiteSpace=wrap;html=1;" parent="w1ibGSSZmLzrK6lH3_LJ-1" vertex="1">
          <mxGeometry y="220" width="386" height="26" as="geometry" />
        </mxCell>
        <mxCell id="8QUW1PWuyOzQRffvTLw3-71" style="edgeStyle=orthogonalEdgeStyle;rounded=0;orthogonalLoop=1;jettySize=auto;html=1;entryX=0;entryY=0.5;entryDx=0;entryDy=0;" parent="w1ibGSSZmLzrK6lH3_LJ-1" source="8QUW1PWuyOzQRffvTLw3-53" target="8QUW1PWuyOzQRffvTLw3-49" edge="1">
          <mxGeometry relative="1" as="geometry">
            <Array as="points">
              <mxPoint x="-10" y="259" />
              <mxPoint x="-10" y="233" />
            </Array>
          </mxGeometry>
        </mxCell>
        <mxCell id="8QUW1PWuyOzQRffvTLw3-53" value="+ StartTemplateLevel() : void" style="text;strokeColor=none;fillColor=none;align=left;verticalAlign=top;spacingLeft=4;spacingRight=4;overflow=hidden;rotatable=0;points=[[0,0.5],[1,0.5]];portConstraint=eastwest;whiteSpace=wrap;html=1;" parent="w1ibGSSZmLzrK6lH3_LJ-1" vertex="1">
          <mxGeometry y="246" width="386" height="26" as="geometry" />
        </mxCell>
        <mxCell id="8QUW1PWuyOzQRffvTLw3-58" value="+ ResetProgress() : void" style="text;strokeColor=none;fillColor=none;align=left;verticalAlign=top;spacingLeft=4;spacingRight=4;overflow=hidden;rotatable=0;points=[[0,0.5],[1,0.5]];portConstraint=eastwest;whiteSpace=wrap;html=1;" parent="w1ibGSSZmLzrK6lH3_LJ-1" vertex="1">
          <mxGeometry y="272" width="386" height="26" as="geometry" />
        </mxCell>
        <mxCell id="8QUW1PWuyOzQRffvTLw3-10" value="LoadingScreen : MonoBehaviour" style="swimlane;fontStyle=1;align=center;verticalAlign=top;childLayout=stackLayout;horizontal=1;startSize=26;horizontalStack=0;resizeParent=1;resizeParentMax=0;resizeLast=0;collapsible=1;marginBottom=0;whiteSpace=wrap;html=1;" parent="8QUW1PWuyOzQRffvTLw3-3" vertex="1">
          <mxGeometry x="840" y="350" width="280" height="190" as="geometry" />
        </mxCell>
        <mxCell id="8QUW1PWuyOzQRffvTLw3-11" value="+ Screen : GameObject" style="text;strokeColor=none;fillColor=none;align=left;verticalAlign=top;spacingLeft=4;spacingRight=4;overflow=hidden;rotatable=0;points=[[0,0.5],[1,0.5]];portConstraint=eastwest;whiteSpace=wrap;html=1;" parent="8QUW1PWuyOzQRffvTLw3-10" vertex="1">
          <mxGeometry y="26" width="280" height="26" as="geometry" />
        </mxCell>
        <mxCell id="8QUW1PWuyOzQRffvTLw3-14" value="+ MessageText : TMP_Text" style="text;strokeColor=none;fillColor=none;align=left;verticalAlign=top;spacingLeft=4;spacingRight=4;overflow=hidden;rotatable=0;points=[[0,0.5],[1,0.5]];portConstraint=eastwest;whiteSpace=wrap;html=1;" parent="8QUW1PWuyOzQRffvTLw3-10" vertex="1">
          <mxGeometry y="52" width="280" height="26" as="geometry" />
        </mxCell>
        <mxCell id="8QUW1PWuyOzQRffvTLw3-15" value="+ Instance : LoadingScreen" style="text;strokeColor=none;fillColor=none;align=left;verticalAlign=top;spacingLeft=4;spacingRight=4;overflow=hidden;rotatable=0;points=[[0,0.5],[1,0.5]];portConstraint=eastwest;whiteSpace=wrap;html=1;fontStyle=4" parent="8QUW1PWuyOzQRffvTLw3-10" vertex="1">
          <mxGeometry y="78" width="280" height="26" as="geometry" />
        </mxCell>
        <mxCell id="8QUW1PWuyOzQRffvTLw3-12" value="" style="line;strokeWidth=1;fillColor=none;align=left;verticalAlign=middle;spacingTop=-1;spacingLeft=3;spacingRight=3;rotatable=0;labelPosition=right;points=[];portConstraint=eastwest;strokeColor=inherit;" parent="8QUW1PWuyOzQRffvTLw3-10" vertex="1">
          <mxGeometry y="104" width="280" height="8" as="geometry" />
        </mxCell>
        <mxCell id="AEAD8FZH2cgO7j8btaIu-1" value="+ ShowMessage(message : string) : void" style="text;strokeColor=none;fillColor=none;align=left;verticalAlign=top;spacingLeft=4;spacingRight=4;overflow=hidden;rotatable=0;points=[[0,0.5],[1,0.5]];portConstraint=eastwest;whiteSpace=wrap;html=1;" parent="8QUW1PWuyOzQRffvTLw3-10" vertex="1">
          <mxGeometry y="112" width="280" height="26" as="geometry" />
        </mxCell>
        <mxCell id="8QUW1PWuyOzQRffvTLw3-16" value="+ Load(sceneBuildIndex : int) : void" style="text;strokeColor=none;fillColor=none;align=left;verticalAlign=top;spacingLeft=4;spacingRight=4;overflow=hidden;rotatable=0;points=[[0,0.5],[1,0.5]];portConstraint=eastwest;whiteSpace=wrap;html=1;" parent="8QUW1PWuyOzQRffvTLw3-10" vertex="1">
          <mxGeometry y="138" width="280" height="26" as="geometry" />
        </mxCell>
        <mxCell id="8QUW1PWuyOzQRffvTLw3-17" value="+ LoadAsync(sceneBuildIndex : int) : IEnumerator" style="text;strokeColor=none;fillColor=none;align=left;verticalAlign=top;spacingLeft=4;spacingRight=4;overflow=hidden;rotatable=0;points=[[0,0.5],[1,0.5]];portConstraint=eastwest;whiteSpace=wrap;html=1;" parent="8QUW1PWuyOzQRffvTLw3-10" vertex="1">
          <mxGeometry y="164" width="280" height="26" as="geometry" />
        </mxCell>
        <mxCell id="8QUW1PWuyOzQRffvTLw3-78" style="edgeStyle=orthogonalEdgeStyle;rounded=0;orthogonalLoop=1;jettySize=auto;html=1;entryX=0.001;entryY=0.821;entryDx=0;entryDy=0;entryPerimeter=0;" parent="8QUW1PWuyOzQRffvTLw3-10" source="8QUW1PWuyOzQRffvTLw3-16" target="8QUW1PWuyOzQRffvTLw3-17" edge="1">
          <mxGeometry relative="1" as="geometry" />
        </mxCell>
        <mxCell id="8QUW1PWuyOzQRffvTLw3-22" value="LevelShower : MonoBehaviour" style="swimlane;fontStyle=1;align=center;verticalAlign=top;childLayout=stackLayout;horizontal=1;startSize=26;horizontalStack=0;resizeParent=1;resizeParentMax=0;resizeLast=0;collapsible=1;marginBottom=0;whiteSpace=wrap;html=1;" parent="8QUW1PWuyOzQRffvTLw3-3" vertex="1">
          <mxGeometry x="40" y="470" width="290" height="164" as="geometry" />
        </mxCell>
        <mxCell id="8QUW1PWuyOzQRffvTLw3-23" value="+ Levels : List&amp;lt;Level&amp;gt;" style="text;strokeColor=none;fillColor=none;align=left;verticalAlign=top;spacingLeft=4;spacingRight=4;overflow=hidden;rotatable=0;points=[[0,0.5],[1,0.5]];portConstraint=eastwest;whiteSpace=wrap;html=1;" parent="8QUW1PWuyOzQRffvTLw3-22" vertex="1">
          <mxGeometry y="26" width="290" height="26" as="geometry" />
        </mxCell>
        <mxCell id="8QUW1PWuyOzQRffvTLw3-26" value="+ ButtonPrefab : GameObject" style="text;strokeColor=none;fillColor=none;align=left;verticalAlign=top;spacingLeft=4;spacingRight=4;overflow=hidden;rotatable=0;points=[[0,0.5],[1,0.5]];portConstraint=eastwest;whiteSpace=wrap;html=1;" parent="8QUW1PWuyOzQRffvTLw3-22" vertex="1">
          <mxGeometry y="52" width="290" height="26" as="geometry" />
        </mxCell>
        <mxCell id="8QUW1PWuyOzQRffvTLw3-27" value="+ SpawnTransform : Transform" style="text;strokeColor=none;fillColor=none;align=left;verticalAlign=top;spacingLeft=4;spacingRight=4;overflow=hidden;rotatable=0;points=[[0,0.5],[1,0.5]];portConstraint=eastwest;whiteSpace=wrap;html=1;" parent="8QUW1PWuyOzQRffvTLw3-22" vertex="1">
          <mxGeometry y="78" width="290" height="26" as="geometry" />
        </mxCell>
        <mxCell id="8QUW1PWuyOzQRffvTLw3-28" value="-&amp;nbsp;initializedButtons : List&amp;lt;Button&amp;gt;" style="text;strokeColor=none;fillColor=none;align=left;verticalAlign=top;spacingLeft=4;spacingRight=4;overflow=hidden;rotatable=0;points=[[0,0.5],[1,0.5]];portConstraint=eastwest;whiteSpace=wrap;html=1;" parent="8QUW1PWuyOzQRffvTLw3-22" vertex="1">
          <mxGeometry y="104" width="290" height="26" as="geometry" />
        </mxCell>
        <mxCell id="8QUW1PWuyOzQRffvTLw3-24" value="" style="line;strokeWidth=1;fillColor=none;align=left;verticalAlign=middle;spacingTop=-1;spacingLeft=3;spacingRight=3;rotatable=0;labelPosition=right;points=[];portConstraint=eastwest;strokeColor=inherit;" parent="8QUW1PWuyOzQRffvTLw3-22" vertex="1">
          <mxGeometry y="130" width="290" height="8" as="geometry" />
        </mxCell>
        <mxCell id="8QUW1PWuyOzQRffvTLw3-30" value="- RefreshButtons() : void" style="text;strokeColor=none;fillColor=none;align=left;verticalAlign=top;spacingLeft=4;spacingRight=4;overflow=hidden;rotatable=0;points=[[0,0.5],[1,0.5]];portConstraint=eastwest;whiteSpace=wrap;html=1;" parent="8QUW1PWuyOzQRffvTLw3-22" vertex="1">
          <mxGeometry y="138" width="290" height="26" as="geometry" />
        </mxCell>
        <mxCell id="8QUW1PWuyOzQRffvTLw3-37" value="MainMenuUI" style="html=1;whiteSpace=wrap;" parent="8QUW1PWuyOzQRffvTLw3-3" vertex="1">
          <mxGeometry x="540" y="440" width="110" height="50" as="geometry" />
        </mxCell>
        <mxCell id="8QUW1PWuyOzQRffvTLw3-47" style="edgeStyle=orthogonalEdgeStyle;rounded=0;orthogonalLoop=1;jettySize=auto;html=1;entryX=0;entryY=0.5;entryDx=0;entryDy=0;" parent="8QUW1PWuyOzQRffvTLw3-3" source="8QUW1PWuyOzQRffvTLw3-38" target="8QUW1PWuyOzQRffvTLw3-8" edge="1">
          <mxGeometry relative="1" as="geometry">
            <Array as="points">
              <mxPoint x="705" y="400" />
              <mxPoint x="80" y="400" />
              <mxPoint x="80" y="271" />
            </Array>
          </mxGeometry>
        </mxCell>
        <mxCell id="8QUW1PWuyOzQRffvTLw3-38" value="MainMenu&lt;br&gt;EventSystem" style="html=1;whiteSpace=wrap;" parent="8QUW1PWuyOzQRffvTLw3-3" vertex="1">
          <mxGeometry x="650" y="325" width="110" height="50" as="geometry" />
        </mxCell>
        <mxCell id="8QUW1PWuyOzQRffvTLw3-40" style="edgeStyle=orthogonalEdgeStyle;rounded=0;orthogonalLoop=1;jettySize=auto;html=1;" parent="8QUW1PWuyOzQRffvTLw3-3" source="w1ibGSSZmLzrK6lH3_LJ-4" target="8QUW1PWuyOzQRffvTLw3-37" edge="1">
          <mxGeometry relative="1" as="geometry" />
        </mxCell>
        <mxCell id="8QUW1PWuyOzQRffvTLw3-41" style="edgeStyle=orthogonalEdgeStyle;rounded=0;orthogonalLoop=1;jettySize=auto;html=1;entryX=0;entryY=0.25;entryDx=0;entryDy=0;" parent="8QUW1PWuyOzQRffvTLw3-3" source="8QUW1PWuyOzQRffvTLw3-8" target="8QUW1PWuyOzQRffvTLw3-37" edge="1">
          <mxGeometry relative="1" as="geometry">
            <mxPoint x="529.9999999999995" y="350" as="targetPoint" />
          </mxGeometry>
        </mxCell>
        <mxCell id="8QUW1PWuyOzQRffvTLw3-42" style="edgeStyle=orthogonalEdgeStyle;rounded=0;orthogonalLoop=1;jettySize=auto;html=1;entryX=0;entryY=0.75;entryDx=0;entryDy=0;" parent="8QUW1PWuyOzQRffvTLw3-3" source="8QUW1PWuyOzQRffvTLw3-9" target="8QUW1PWuyOzQRffvTLw3-37" edge="1">
          <mxGeometry relative="1" as="geometry">
            <mxPoint x="519.9999999999995" y="350" as="targetPoint" />
          </mxGeometry>
        </mxCell>
        <mxCell id="8QUW1PWuyOzQRffvTLw3-44" style="edgeStyle=orthogonalEdgeStyle;rounded=0;orthogonalLoop=1;jettySize=auto;html=1;entryX=0.5;entryY=1;entryDx=0;entryDy=0;" parent="8QUW1PWuyOzQRffvTLw3-3" source="8QUW1PWuyOzQRffvTLw3-30" target="8QUW1PWuyOzQRffvTLw3-37" edge="1">
          <mxGeometry relative="1" as="geometry" />
        </mxCell>
        <mxCell id="8QUW1PWuyOzQRffvTLw3-56" value="" style="endArrow=classic;html=1;rounded=0;entryX=0;entryY=0.5;entryDx=0;entryDy=0;" parent="8QUW1PWuyOzQRffvTLw3-3" target="w1ibGSSZmLzrK6lH3_LJ-4" edge="1">
          <mxGeometry width="50" height="50" relative="1" as="geometry">
            <mxPoint x="80" y="270" as="sourcePoint" />
            <mxPoint x="100" y="210" as="targetPoint" />
            <Array as="points">
              <mxPoint x="80" y="245" />
            </Array>
          </mxGeometry>
        </mxCell>
        <mxCell id="v83eA48cjaej-B-r6ZFM-2" value="SceneManager" style="html=1;whiteSpace=wrap;" parent="8QUW1PWuyOzQRffvTLw3-3" vertex="1">
          <mxGeometry x="1540" y="502" width="110" height="50" as="geometry" />
        </mxCell>
        <mxCell id="8QUW1PWuyOzQRffvTLw3-33" value="InGameMenuManager : MonoBehaviour" style="swimlane;fontStyle=1;align=center;verticalAlign=top;childLayout=stackLayout;horizontal=1;startSize=26;horizontalStack=0;resizeParent=1;resizeParentMax=0;resizeLast=0;collapsible=1;marginBottom=0;whiteSpace=wrap;html=1;" parent="8QUW1PWuyOzQRffvTLw3-3" vertex="1">
          <mxGeometry x="1180" y="170" width="280" height="86" as="geometry" />
        </mxCell>
        <mxCell id="8QUW1PWuyOzQRffvTLw3-34" value="- MAINMENU_BUILD_INDEX : int" style="text;strokeColor=none;fillColor=none;align=left;verticalAlign=top;spacingLeft=4;spacingRight=4;overflow=hidden;rotatable=0;points=[[0,0.5],[1,0.5]];portConstraint=eastwest;whiteSpace=wrap;html=1;" parent="8QUW1PWuyOzQRffvTLw3-33" vertex="1">
          <mxGeometry y="26" width="280" height="26" as="geometry" />
        </mxCell>
        <mxCell id="8QUW1PWuyOzQRffvTLw3-35" value="" style="line;strokeWidth=1;fillColor=none;align=left;verticalAlign=middle;spacingTop=-1;spacingLeft=3;spacingRight=3;rotatable=0;labelPosition=right;points=[];portConstraint=eastwest;strokeColor=inherit;" parent="8QUW1PWuyOzQRffvTLw3-33" vertex="1">
          <mxGeometry y="52" width="280" height="8" as="geometry" />
        </mxCell>
        <mxCell id="8QUW1PWuyOzQRffvTLw3-36" value="+ ReturnToMenu() : void" style="text;strokeColor=none;fillColor=none;align=left;verticalAlign=top;spacingLeft=4;spacingRight=4;overflow=hidden;rotatable=0;points=[[0,0.5],[1,0.5]];portConstraint=eastwest;whiteSpace=wrap;html=1;" parent="8QUW1PWuyOzQRffvTLw3-33" vertex="1">
          <mxGeometry y="60" width="280" height="26" as="geometry" />
        </mxCell>
        <mxCell id="v83eA48cjaej-B-r6ZFM-3" style="edgeStyle=orthogonalEdgeStyle;rounded=0;orthogonalLoop=1;jettySize=auto;html=1;entryX=0;entryY=0.5;entryDx=0;entryDy=0;" parent="8QUW1PWuyOzQRffvTLw3-3" source="8QUW1PWuyOzQRffvTLw3-36" target="v83eA48cjaej-B-r6ZFM-2" edge="1">
          <mxGeometry relative="1" as="geometry" />
        </mxCell>
        <mxCell id="v83eA48cjaej-B-r6ZFM-4" style="edgeStyle=orthogonalEdgeStyle;rounded=0;orthogonalLoop=1;jettySize=auto;html=1;entryX=0;entryY=0.5;entryDx=0;entryDy=0;" parent="8QUW1PWuyOzQRffvTLw3-3" source="8QUW1PWuyOzQRffvTLw3-17" target="v83eA48cjaej-B-r6ZFM-2" edge="1">
          <mxGeometry relative="1" as="geometry" />
        </mxCell>
        <mxCell id="v83eA48cjaej-B-r6ZFM-5" value="PauseManager : MonoBehaviour" style="swimlane;fontStyle=1;align=center;verticalAlign=top;childLayout=stackLayout;horizontal=1;startSize=26;horizontalStack=0;resizeParent=1;resizeParentMax=0;resizeLast=0;collapsible=1;marginBottom=0;whiteSpace=wrap;html=1;" parent="8QUW1PWuyOzQRffvTLw3-3" vertex="1">
          <mxGeometry x="1105" y="570" width="430" height="242" as="geometry" />
        </mxCell>
        <mxCell id="v83eA48cjaej-B-r6ZFM-12" value="+ Instance : PauseManager" style="text;strokeColor=none;fillColor=none;align=left;verticalAlign=top;spacingLeft=4;spacingRight=4;overflow=hidden;rotatable=0;points=[[0,0.5],[1,0.5]];portConstraint=eastwest;whiteSpace=wrap;html=1;fontStyle=4" parent="v83eA48cjaej-B-r6ZFM-5" vertex="1">
          <mxGeometry y="26" width="430" height="26" as="geometry" />
        </mxCell>
        <mxCell id="v83eA48cjaej-B-r6ZFM-6" value="- pausePanel : GameObject" style="text;strokeColor=none;fillColor=none;align=left;verticalAlign=top;spacingLeft=4;spacingRight=4;overflow=hidden;rotatable=0;points=[[0,0.5],[1,0.5]];portConstraint=eastwest;whiteSpace=wrap;html=1;" parent="v83eA48cjaej-B-r6ZFM-5" vertex="1">
          <mxGeometry y="52" width="430" height="26" as="geometry" />
        </mxCell>
        <mxCell id="v83eA48cjaej-B-r6ZFM-9" value="- inputAsset : InputActionAsset" style="text;strokeColor=none;fillColor=none;align=left;verticalAlign=top;spacingLeft=4;spacingRight=4;overflow=hidden;rotatable=0;points=[[0,0.5],[1,0.5]];portConstraint=eastwest;whiteSpace=wrap;html=1;" parent="v83eA48cjaej-B-r6ZFM-5" vertex="1">
          <mxGeometry y="78" width="430" height="26" as="geometry" />
        </mxCell>
        <mxCell id="v83eA48cjaej-B-r6ZFM-10" value="- pauseAction : InputAction" style="text;strokeColor=none;fillColor=none;align=left;verticalAlign=top;spacingLeft=4;spacingRight=4;overflow=hidden;rotatable=0;points=[[0,0.5],[1,0.5]];portConstraint=eastwest;whiteSpace=wrap;html=1;" parent="v83eA48cjaej-B-r6ZFM-5" vertex="1">
          <mxGeometry y="104" width="430" height="26" as="geometry" />
        </mxCell>
        <mxCell id="v83eA48cjaej-B-r6ZFM-11" value="- pauseAudio : bool" style="text;strokeColor=none;fillColor=none;align=left;verticalAlign=top;spacingLeft=4;spacingRight=4;overflow=hidden;rotatable=0;points=[[0,0.5],[1,0.5]];portConstraint=eastwest;whiteSpace=wrap;html=1;" parent="v83eA48cjaej-B-r6ZFM-5" vertex="1">
          <mxGeometry y="130" width="430" height="26" as="geometry" />
        </mxCell>
        <mxCell id="v83eA48cjaej-B-r6ZFM-7" value="" style="line;strokeWidth=1;fillColor=none;align=left;verticalAlign=middle;spacingTop=-1;spacingLeft=3;spacingRight=3;rotatable=0;labelPosition=right;points=[];portConstraint=eastwest;strokeColor=inherit;" parent="v83eA48cjaej-B-r6ZFM-5" vertex="1">
          <mxGeometry y="156" width="430" height="8" as="geometry" />
        </mxCell>
        <mxCell id="v83eA48cjaej-B-r6ZFM-8" value="- TogglePause() : void" style="text;strokeColor=none;fillColor=none;align=left;verticalAlign=top;spacingLeft=4;spacingRight=4;overflow=hidden;rotatable=0;points=[[0,0.5],[1,0.5]];portConstraint=eastwest;whiteSpace=wrap;html=1;" parent="v83eA48cjaej-B-r6ZFM-5" vertex="1">
          <mxGeometry y="164" width="430" height="26" as="geometry" />
        </mxCell>
        <mxCell id="v83eA48cjaej-B-r6ZFM-17" value="- DoPaused() : void" style="text;strokeColor=none;fillColor=none;align=left;verticalAlign=top;spacingLeft=4;spacingRight=4;overflow=hidden;rotatable=0;points=[[0,0.5],[1,0.5]];portConstraint=eastwest;whiteSpace=wrap;html=1;" parent="v83eA48cjaej-B-r6ZFM-5" vertex="1">
          <mxGeometry y="190" width="430" height="26" as="geometry" />
        </mxCell>
        <mxCell id="v83eA48cjaej-B-r6ZFM-18" value="- DoPlaying() : void" style="text;strokeColor=none;fillColor=none;align=left;verticalAlign=top;spacingLeft=4;spacingRight=4;overflow=hidden;rotatable=0;points=[[0,0.5],[1,0.5]];portConstraint=eastwest;whiteSpace=wrap;html=1;" parent="v83eA48cjaej-B-r6ZFM-5" vertex="1">
          <mxGeometry y="216" width="430" height="26" as="geometry" />
        </mxCell>
        <mxCell id="v83eA48cjaej-B-r6ZFM-130" value="EndScreenActions : MonoBehaviour" style="swimlane;fontStyle=1;align=center;verticalAlign=top;childLayout=stackLayout;horizontal=1;startSize=26;horizontalStack=0;resizeParent=1;resizeParentMax=0;resizeLast=0;collapsible=1;marginBottom=0;whiteSpace=wrap;html=1;" parent="8QUW1PWuyOzQRffvTLw3-3" vertex="1">
          <mxGeometry x="1714" y="294" width="270" height="112" as="geometry" />
        </mxCell>
        <mxCell id="v83eA48cjaej-B-r6ZFM-131" value="- MAINMENU_BUILD_INDEX : int" style="text;strokeColor=none;fillColor=none;align=left;verticalAlign=top;spacingLeft=4;spacingRight=4;overflow=hidden;rotatable=0;points=[[0,0.5],[1,0.5]];portConstraint=eastwest;whiteSpace=wrap;html=1;" parent="v83eA48cjaej-B-r6ZFM-130" vertex="1">
          <mxGeometry y="26" width="270" height="26" as="geometry" />
        </mxCell>
        <mxCell id="v83eA48cjaej-B-r6ZFM-132" value="" style="line;strokeWidth=1;fillColor=none;align=left;verticalAlign=middle;spacingTop=-1;spacingLeft=3;spacingRight=3;rotatable=0;labelPosition=right;points=[];portConstraint=eastwest;strokeColor=inherit;" parent="v83eA48cjaej-B-r6ZFM-130" vertex="1">
          <mxGeometry y="52" width="270" height="8" as="geometry" />
        </mxCell>
        <mxCell id="v83eA48cjaej-B-r6ZFM-133" value="+ LoadMenu() : void" style="text;strokeColor=none;fillColor=none;align=left;verticalAlign=top;spacingLeft=4;spacingRight=4;overflow=hidden;rotatable=0;points=[[0,0.5],[1,0.5]];portConstraint=eastwest;whiteSpace=wrap;html=1;" parent="v83eA48cjaej-B-r6ZFM-130" vertex="1">
          <mxGeometry y="60" width="270" height="26" as="geometry" />
        </mxCell>
        <mxCell id="v83eA48cjaej-B-r6ZFM-134" value="+ RestartLevel() : void" style="text;strokeColor=none;fillColor=none;align=left;verticalAlign=top;spacingLeft=4;spacingRight=4;overflow=hidden;rotatable=0;points=[[0,0.5],[1,0.5]];portConstraint=eastwest;whiteSpace=wrap;html=1;" parent="v83eA48cjaej-B-r6ZFM-130" vertex="1">
          <mxGeometry y="86" width="270" height="26" as="geometry" />
        </mxCell>
        <mxCell id="v83eA48cjaej-B-r6ZFM-136" value="EndScreenShower : MonoBehaviour" style="swimlane;fontStyle=1;align=center;verticalAlign=top;childLayout=stackLayout;horizontal=1;startSize=26;horizontalStack=0;resizeParent=1;resizeParentMax=0;resizeLast=0;collapsible=1;marginBottom=0;whiteSpace=wrap;html=1;" parent="8QUW1PWuyOzQRffvTLw3-3" vertex="1">
          <mxGeometry x="1710" y="600" width="270" height="138" as="geometry" />
        </mxCell>
        <mxCell id="v83eA48cjaej-B-r6ZFM-137" value="- title : TMP_Text" style="text;strokeColor=none;fillColor=none;align=left;verticalAlign=top;spacingLeft=4;spacingRight=4;overflow=hidden;rotatable=0;points=[[0,0.5],[1,0.5]];portConstraint=eastwest;whiteSpace=wrap;html=1;" parent="v83eA48cjaej-B-r6ZFM-136" vertex="1">
          <mxGeometry y="26" width="270" height="26" as="geometry" />
        </mxCell>
        <mxCell id="v83eA48cjaej-B-r6ZFM-140" value="- nextLevelButton : Button" style="text;strokeColor=none;fillColor=none;align=left;verticalAlign=top;spacingLeft=4;spacingRight=4;overflow=hidden;rotatable=0;points=[[0,0.5],[1,0.5]];portConstraint=eastwest;whiteSpace=wrap;html=1;" parent="v83eA48cjaej-B-r6ZFM-136" vertex="1">
          <mxGeometry y="52" width="270" height="26" as="geometry" />
        </mxCell>
        <mxCell id="v83eA48cjaej-B-r6ZFM-141" value="- screen : Gameobject" style="text;strokeColor=none;fillColor=none;align=left;verticalAlign=top;spacingLeft=4;spacingRight=4;overflow=hidden;rotatable=0;points=[[0,0.5],[1,0.5]];portConstraint=eastwest;whiteSpace=wrap;html=1;" parent="v83eA48cjaej-B-r6ZFM-136" vertex="1">
          <mxGeometry y="78" width="270" height="26" as="geometry" />
        </mxCell>
        <mxCell id="v83eA48cjaej-B-r6ZFM-138" value="" style="line;strokeWidth=1;fillColor=none;align=left;verticalAlign=middle;spacingTop=-1;spacingLeft=3;spacingRight=3;rotatable=0;labelPosition=right;points=[];portConstraint=eastwest;strokeColor=inherit;" parent="v83eA48cjaej-B-r6ZFM-136" vertex="1">
          <mxGeometry y="104" width="270" height="8" as="geometry" />
        </mxCell>
        <mxCell id="v83eA48cjaej-B-r6ZFM-139" value="+ ShowEndScreen(isVictory : bool) : void" style="text;strokeColor=none;fillColor=none;align=left;verticalAlign=top;spacingLeft=4;spacingRight=4;overflow=hidden;rotatable=0;points=[[0,0.5],[1,0.5]];portConstraint=eastwest;whiteSpace=wrap;html=1;" parent="v83eA48cjaej-B-r6ZFM-136" vertex="1">
          <mxGeometry y="112" width="270" height="26" as="geometry" />
        </mxCell>
        <mxCell id="v83eA48cjaej-B-r6ZFM-143" style="edgeStyle=orthogonalEdgeStyle;rounded=0;orthogonalLoop=1;jettySize=auto;html=1;entryX=0.5;entryY=0;entryDx=0;entryDy=0;" parent="8QUW1PWuyOzQRffvTLw3-3" source="v83eA48cjaej-B-r6ZFM-133" target="v83eA48cjaej-B-r6ZFM-2" edge="1">
          <mxGeometry relative="1" as="geometry" />
        </mxCell>
        <mxCell id="v83eA48cjaej-B-r6ZFM-144" style="edgeStyle=orthogonalEdgeStyle;rounded=0;orthogonalLoop=1;jettySize=auto;html=1;entryX=0.5;entryY=0;entryDx=0;entryDy=0;" parent="8QUW1PWuyOzQRffvTLw3-3" source="v83eA48cjaej-B-r6ZFM-134" target="v83eA48cjaej-B-r6ZFM-2" edge="1">
          <mxGeometry relative="1" as="geometry">
            <mxPoint x="1610" y="500" as="targetPoint" />
          </mxGeometry>
        </mxCell>
        <mxCell id="8QUW1PWuyOzQRffvTLw3-55" value="" style="endArrow=classic;html=1;rounded=0;entryX=0;entryY=0.5;entryDx=0;entryDy=0;" parent="1" target="8QUW1PWuyOzQRffvTLw3-9" edge="1">
          <mxGeometry width="50" height="50" relative="1" as="geometry">
            <mxPoint x="20" y="397" as="sourcePoint" />
            <mxPoint x="540" y="530" as="targetPoint" />
          </mxGeometry>
        </mxCell>
        <mxCell id="8QUW1PWuyOzQRffvTLw3-59" value="Tanchiki.GameManagers" style="swimlane;whiteSpace=wrap;html=1;" parent="1" vertex="1">
          <mxGeometry x="-80" y="1150" width="1890" height="970" as="geometry" />
        </mxCell>
        <mxCell id="8QUW1PWuyOzQRffvTLw3-60" value="LevelManager" style="swimlane;fontStyle=5;align=center;verticalAlign=top;childLayout=stackLayout;horizontal=1;startSize=26;horizontalStack=0;resizeParent=1;resizeParentMax=0;resizeLast=0;collapsible=1;marginBottom=0;whiteSpace=wrap;html=1;" parent="8QUW1PWuyOzQRffvTLw3-59" vertex="1">
          <mxGeometry x="180" y="270" width="510" height="164" as="geometry" />
        </mxCell>
        <mxCell id="8QUW1PWuyOzQRffvTLw3-61" value="- currentLevel : int" style="text;strokeColor=none;fillColor=none;align=left;verticalAlign=top;spacingLeft=4;spacingRight=4;overflow=hidden;rotatable=0;points=[[0,0.5],[1,0.5]];portConstraint=eastwest;whiteSpace=wrap;html=1;fontStyle=4" parent="8QUW1PWuyOzQRffvTLw3-60" vertex="1">
          <mxGeometry y="26" width="510" height="26" as="geometry" />
        </mxCell>
        <mxCell id="8QUW1PWuyOzQRffvTLw3-62" value="" style="line;strokeWidth=1;fillColor=none;align=left;verticalAlign=middle;spacingTop=-1;spacingLeft=3;spacingRight=3;rotatable=0;labelPosition=right;points=[];portConstraint=eastwest;strokeColor=inherit;" parent="8QUW1PWuyOzQRffvTLw3-60" vertex="1">
          <mxGeometry y="52" width="510" height="8" as="geometry" />
        </mxCell>
        <mxCell id="8QUW1PWuyOzQRffvTLw3-63" value="# SetCurrentLevel(level : int) : void" style="text;strokeColor=none;fillColor=none;align=left;verticalAlign=top;spacingLeft=4;spacingRight=4;overflow=hidden;rotatable=0;points=[[0,0.5],[1,0.5]];portConstraint=eastwest;whiteSpace=wrap;html=1;fontStyle=4" parent="8QUW1PWuyOzQRffvTLw3-60" vertex="1">
          <mxGeometry y="60" width="510" height="26" as="geometry" />
        </mxCell>
        <mxCell id="8QUW1PWuyOzQRffvTLw3-64" value="# CompleteLevel() : void" style="text;strokeColor=none;fillColor=none;align=left;verticalAlign=top;spacingLeft=4;spacingRight=4;overflow=hidden;rotatable=0;points=[[0,0.5],[1,0.5]];portConstraint=eastwest;whiteSpace=wrap;html=1;fontStyle=4" parent="8QUW1PWuyOzQRffvTLw3-60" vertex="1">
          <mxGeometry y="86" width="510" height="26" as="geometry" />
        </mxCell>
        <mxCell id="8QUW1PWuyOzQRffvTLw3-65" value="# ResetProgress() : void" style="text;strokeColor=none;fillColor=none;align=left;verticalAlign=top;spacingLeft=4;spacingRight=4;overflow=hidden;rotatable=0;points=[[0,0.5],[1,0.5]];portConstraint=eastwest;whiteSpace=wrap;html=1;fontStyle=4" parent="8QUW1PWuyOzQRffvTLw3-60" vertex="1">
          <mxGeometry y="112" width="510" height="26" as="geometry" />
        </mxCell>
        <mxCell id="8QUW1PWuyOzQRffvTLw3-66" value="# StartLevel(sceneBuildIndex : int, displayLevelIndex : int) : void" style="text;strokeColor=none;fillColor=none;align=left;verticalAlign=top;spacingLeft=4;spacingRight=4;overflow=hidden;rotatable=0;points=[[0,0.5],[1,0.5]];portConstraint=eastwest;whiteSpace=wrap;html=1;fontStyle=4" parent="8QUW1PWuyOzQRffvTLw3-60" vertex="1">
          <mxGeometry y="138" width="510" height="26" as="geometry" />
        </mxCell>
        <mxCell id="v83eA48cjaej-B-r6ZFM-118" style="edgeStyle=orthogonalEdgeStyle;rounded=0;orthogonalLoop=1;jettySize=auto;html=1;entryX=0.5;entryY=0;entryDx=0;entryDy=0;exitX=1;exitY=0.5;exitDx=0;exitDy=0;" parent="8QUW1PWuyOzQRffvTLw3-59" source="v83eA48cjaej-B-r6ZFM-112" target="v83eA48cjaej-B-r6ZFM-42" edge="1">
          <mxGeometry relative="1" as="geometry">
            <Array as="points">
              <mxPoint x="1440" y="177" />
              <mxPoint x="1440" y="320" />
              <mxPoint x="1270" y="320" />
            </Array>
          </mxGeometry>
        </mxCell>
        <mxCell id="v83eA48cjaej-B-r6ZFM-25" value="GameManager : MonoBehaviour" style="swimlane;fontStyle=1;align=center;verticalAlign=top;childLayout=stackLayout;horizontal=1;startSize=26;horizontalStack=0;resizeParent=1;resizeParentMax=0;resizeLast=0;collapsible=1;marginBottom=0;whiteSpace=wrap;html=1;" parent="8QUW1PWuyOzQRffvTLw3-59" vertex="1">
          <mxGeometry x="1120" y="60" width="300" height="242" as="geometry" />
        </mxCell>
        <mxCell id="v83eA48cjaej-B-r6ZFM-26" value="+ Instance : GameManager" style="text;strokeColor=none;fillColor=none;align=left;verticalAlign=top;spacingLeft=4;spacingRight=4;overflow=hidden;rotatable=0;points=[[0,0.5],[1,0.5]];portConstraint=eastwest;whiteSpace=wrap;html=1;fontStyle=4" parent="v83eA48cjaej-B-r6ZFM-25" vertex="1">
          <mxGeometry y="26" width="300" height="26" as="geometry" />
        </mxCell>
        <mxCell id="v83eA48cjaej-B-r6ZFM-29" value="- playerHealth : Health" style="text;strokeColor=none;fillColor=none;align=left;verticalAlign=top;spacingLeft=4;spacingRight=4;overflow=hidden;rotatable=0;points=[[0,0.5],[1,0.5]];portConstraint=eastwest;whiteSpace=wrap;html=1;fontStyle=0" parent="v83eA48cjaej-B-r6ZFM-25" vertex="1">
          <mxGeometry y="52" width="300" height="26" as="geometry" />
        </mxCell>
        <mxCell id="v83eA48cjaej-B-r6ZFM-30" value="- endScreen : EndScreenShower" style="text;strokeColor=none;fillColor=none;align=left;verticalAlign=top;spacingLeft=4;spacingRight=4;overflow=hidden;rotatable=0;points=[[0,0.5],[1,0.5]];portConstraint=eastwest;whiteSpace=wrap;html=1;fontStyle=0" parent="v83eA48cjaej-B-r6ZFM-25" vertex="1">
          <mxGeometry y="78" width="300" height="26" as="geometry" />
        </mxCell>
        <mxCell id="v83eA48cjaej-B-r6ZFM-112" value="# stateMachine : GameStateMachine" style="text;strokeColor=none;fillColor=none;align=left;verticalAlign=top;spacingLeft=4;spacingRight=4;overflow=hidden;rotatable=0;points=[[0,0.5],[1,0.5]];portConstraint=eastwest;whiteSpace=wrap;html=1;fontStyle=0" parent="v83eA48cjaej-B-r6ZFM-25" vertex="1">
          <mxGeometry y="104" width="300" height="26" as="geometry" />
        </mxCell>
        <mxCell id="v83eA48cjaej-B-r6ZFM-27" value="" style="line;strokeWidth=1;fillColor=none;align=left;verticalAlign=middle;spacingTop=-1;spacingLeft=3;spacingRight=3;rotatable=0;labelPosition=right;points=[];portConstraint=eastwest;strokeColor=inherit;" parent="v83eA48cjaej-B-r6ZFM-25" vertex="1">
          <mxGeometry y="130" width="300" height="8" as="geometry" />
        </mxCell>
        <mxCell id="v83eA48cjaej-B-r6ZFM-28" value="- Initialize() : void" style="text;strokeColor=none;fillColor=none;align=left;verticalAlign=top;spacingLeft=4;spacingRight=4;overflow=hidden;rotatable=0;points=[[0,0.5],[1,0.5]];portConstraint=eastwest;whiteSpace=wrap;html=1;" parent="v83eA48cjaej-B-r6ZFM-25" vertex="1">
          <mxGeometry y="138" width="300" height="26" as="geometry" />
        </mxCell>
        <mxCell id="v83eA48cjaej-B-r6ZFM-113" value="- InitializeGameStateMachine() : void" style="text;strokeColor=none;fillColor=none;align=left;verticalAlign=top;spacingLeft=4;spacingRight=4;overflow=hidden;rotatable=0;points=[[0,0.5],[1,0.5]];portConstraint=eastwest;whiteSpace=wrap;html=1;" parent="v83eA48cjaej-B-r6ZFM-25" vertex="1">
          <mxGeometry y="164" width="300" height="26" as="geometry" />
        </mxCell>
        <mxCell id="v83eA48cjaej-B-r6ZFM-114" value="+ SetGameState(newState : GameState) : void" style="text;strokeColor=none;fillColor=none;align=left;verticalAlign=top;spacingLeft=4;spacingRight=4;overflow=hidden;rotatable=0;points=[[0,0.5],[1,0.5]];portConstraint=eastwest;whiteSpace=wrap;html=1;" parent="v83eA48cjaej-B-r6ZFM-25" vertex="1">
          <mxGeometry y="190" width="300" height="26" as="geometry" />
        </mxCell>
        <mxCell id="v83eA48cjaej-B-r6ZFM-115" value="+ TogglePause() : void" style="text;strokeColor=none;fillColor=none;align=left;verticalAlign=top;spacingLeft=4;spacingRight=4;overflow=hidden;rotatable=0;points=[[0,0.5],[1,0.5]];portConstraint=eastwest;whiteSpace=wrap;html=1;" parent="v83eA48cjaej-B-r6ZFM-25" vertex="1">
          <mxGeometry y="216" width="300" height="26" as="geometry" />
        </mxCell>
        <mxCell id="v83eA48cjaej-B-r6ZFM-42" value="GameStateMachine" style="swimlane;fontStyle=1;align=center;verticalAlign=top;childLayout=stackLayout;horizontal=1;startSize=26;horizontalStack=0;resizeParent=1;resizeParentMax=0;resizeLast=0;collapsible=1;marginBottom=0;whiteSpace=wrap;html=1;" parent="8QUW1PWuyOzQRffvTLw3-59" vertex="1">
          <mxGeometry x="1110" y="340" width="320" height="112" as="geometry" />
        </mxCell>
        <mxCell id="v83eA48cjaej-B-r6ZFM-43" value="# currentState : GameState" style="text;strokeColor=none;fillColor=none;align=left;verticalAlign=top;spacingLeft=4;spacingRight=4;overflow=hidden;rotatable=0;points=[[0,0.5],[1,0.5]];portConstraint=eastwest;whiteSpace=wrap;html=1;" parent="v83eA48cjaej-B-r6ZFM-42" vertex="1">
          <mxGeometry y="26" width="320" height="26" as="geometry" />
        </mxCell>
        <mxCell id="v83eA48cjaej-B-r6ZFM-44" value="" style="line;strokeWidth=1;fillColor=none;align=left;verticalAlign=middle;spacingTop=-1;spacingLeft=3;spacingRight=3;rotatable=0;labelPosition=right;points=[];portConstraint=eastwest;strokeColor=inherit;" parent="v83eA48cjaej-B-r6ZFM-42" vertex="1">
          <mxGeometry y="52" width="320" height="8" as="geometry" />
        </mxCell>
        <mxCell id="v83eA48cjaej-B-r6ZFM-120" style="edgeStyle=orthogonalEdgeStyle;rounded=0;orthogonalLoop=1;jettySize=auto;html=1;" parent="v83eA48cjaej-B-r6ZFM-42" source="v83eA48cjaej-B-r6ZFM-45" edge="1">
          <mxGeometry relative="1" as="geometry">
            <mxPoint x="320" y="40" as="targetPoint" />
          </mxGeometry>
        </mxCell>
        <mxCell id="v83eA48cjaej-B-r6ZFM-45" value="+ ChangeState(newState : GameState) : void" style="text;strokeColor=none;fillColor=none;align=left;verticalAlign=top;spacingLeft=4;spacingRight=4;overflow=hidden;rotatable=0;points=[[0,0.5],[1,0.5]];portConstraint=eastwest;whiteSpace=wrap;html=1;" parent="v83eA48cjaej-B-r6ZFM-42" vertex="1">
          <mxGeometry y="60" width="320" height="26" as="geometry" />
        </mxCell>
        <mxCell id="v83eA48cjaej-B-r6ZFM-46" value="+ Update() : void" style="text;strokeColor=none;fillColor=none;align=left;verticalAlign=top;spacingLeft=4;spacingRight=4;overflow=hidden;rotatable=0;points=[[0,0.5],[1,0.5]];portConstraint=eastwest;whiteSpace=wrap;html=1;" parent="v83eA48cjaej-B-r6ZFM-42" vertex="1">
          <mxGeometry y="86" width="320" height="26" as="geometry" />
        </mxCell>
        <mxCell id="v83eA48cjaej-B-r6ZFM-111" value="States" style="swimlane;whiteSpace=wrap;html=1;" parent="8QUW1PWuyOzQRffvTLw3-59" vertex="1">
          <mxGeometry x="1045" y="500" width="470" height="440" as="geometry" />
        </mxCell>
        <mxCell id="v83eA48cjaej-B-r6ZFM-50" value="" style="endArrow=none;html=1;edgeStyle=orthogonalEdgeStyle;rounded=0;entryX=0.5;entryY=1;entryDx=0;entryDy=0;exitX=0.5;exitY=0;exitDx=0;exitDy=0;" parent="v83eA48cjaej-B-r6ZFM-111" source="v83eA48cjaej-B-r6ZFM-31" target="v83eA48cjaej-B-r6ZFM-47" edge="1">
          <mxGeometry relative="1" as="geometry">
            <mxPoint x="77" y="282" as="sourcePoint" />
            <mxPoint x="237" y="282" as="targetPoint" />
          </mxGeometry>
        </mxCell>
        <mxCell id="v83eA48cjaej-B-r6ZFM-51" value="parent" style="edgeLabel;resizable=0;html=1;align=left;verticalAlign=bottom;" parent="v83eA48cjaej-B-r6ZFM-50" connectable="0" vertex="1">
          <mxGeometry x="-1" relative="1" as="geometry" />
        </mxCell>
        <mxCell id="v83eA48cjaej-B-r6ZFM-52" value="child" style="edgeLabel;resizable=0;html=1;align=right;verticalAlign=bottom;" parent="v83eA48cjaej-B-r6ZFM-50" connectable="0" vertex="1">
          <mxGeometry x="1" relative="1" as="geometry" />
        </mxCell>
        <mxCell id="v83eA48cjaej-B-r6ZFM-53" value="" style="endArrow=none;html=1;edgeStyle=orthogonalEdgeStyle;rounded=0;entryX=0.5;entryY=1;entryDx=0;entryDy=0;exitX=0.5;exitY=0;exitDx=0;exitDy=0;" parent="v83eA48cjaej-B-r6ZFM-111" source="v83eA48cjaej-B-r6ZFM-31" target="v83eA48cjaej-B-r6ZFM-48" edge="1">
          <mxGeometry relative="1" as="geometry">
            <mxPoint x="392" y="342" as="sourcePoint" />
            <mxPoint x="337" y="282" as="targetPoint" />
          </mxGeometry>
        </mxCell>
        <mxCell id="v83eA48cjaej-B-r6ZFM-54" value="parent" style="edgeLabel;resizable=0;html=1;align=left;verticalAlign=bottom;" parent="v83eA48cjaej-B-r6ZFM-53" connectable="0" vertex="1">
          <mxGeometry x="-1" relative="1" as="geometry" />
        </mxCell>
        <mxCell id="v83eA48cjaej-B-r6ZFM-55" value="child" style="edgeLabel;resizable=0;html=1;align=right;verticalAlign=bottom;" parent="v83eA48cjaej-B-r6ZFM-53" connectable="0" vertex="1">
          <mxGeometry x="1" relative="1" as="geometry" />
        </mxCell>
        <mxCell id="v83eA48cjaej-B-r6ZFM-58" value="" style="endArrow=none;html=1;edgeStyle=orthogonalEdgeStyle;rounded=0;entryX=0.5;entryY=0;entryDx=0;entryDy=0;exitX=0.5;exitY=1;exitDx=0;exitDy=0;" parent="v83eA48cjaej-B-r6ZFM-111" source="v83eA48cjaej-B-r6ZFM-41" target="v83eA48cjaej-B-r6ZFM-56" edge="1">
          <mxGeometry relative="1" as="geometry">
            <mxPoint x="177" y="122" as="sourcePoint" />
            <mxPoint x="377" y="262" as="targetPoint" />
          </mxGeometry>
        </mxCell>
        <mxCell id="v83eA48cjaej-B-r6ZFM-59" value="parent" style="edgeLabel;resizable=0;html=1;align=left;verticalAlign=bottom;" parent="v83eA48cjaej-B-r6ZFM-58" connectable="0" vertex="1">
          <mxGeometry x="-1" relative="1" as="geometry" />
        </mxCell>
        <mxCell id="v83eA48cjaej-B-r6ZFM-60" value="child" style="edgeLabel;resizable=0;html=1;align=right;verticalAlign=bottom;" parent="v83eA48cjaej-B-r6ZFM-58" connectable="0" vertex="1">
          <mxGeometry x="1" relative="1" as="geometry" />
        </mxCell>
        <mxCell id="v83eA48cjaej-B-r6ZFM-61" value="" style="endArrow=none;html=1;edgeStyle=orthogonalEdgeStyle;rounded=0;entryX=0.5;entryY=0;entryDx=0;entryDy=0;exitX=0.5;exitY=1;exitDx=0;exitDy=0;" parent="v83eA48cjaej-B-r6ZFM-111" source="v83eA48cjaej-B-r6ZFM-41" target="v83eA48cjaej-B-r6ZFM-57" edge="1">
          <mxGeometry relative="1" as="geometry">
            <mxPoint x="227" y="92" as="sourcePoint" />
            <mxPoint x="367" y="322" as="targetPoint" />
          </mxGeometry>
        </mxCell>
        <mxCell id="v83eA48cjaej-B-r6ZFM-62" value="parent" style="edgeLabel;resizable=0;html=1;align=left;verticalAlign=bottom;" parent="v83eA48cjaej-B-r6ZFM-61" connectable="0" vertex="1">
          <mxGeometry x="-1" relative="1" as="geometry" />
        </mxCell>
        <mxCell id="v83eA48cjaej-B-r6ZFM-63" value="child" style="edgeLabel;resizable=0;html=1;align=right;verticalAlign=bottom;" parent="v83eA48cjaej-B-r6ZFM-61" connectable="0" vertex="1">
          <mxGeometry x="1" relative="1" as="geometry" />
        </mxCell>
        <mxCell id="v83eA48cjaej-B-r6ZFM-64" value="" style="endArrow=none;html=1;edgeStyle=orthogonalEdgeStyle;rounded=0;entryX=0.5;entryY=1;entryDx=0;entryDy=0;" parent="v83eA48cjaej-B-r6ZFM-111" target="v83eA48cjaej-B-r6ZFM-57" edge="1">
          <mxGeometry relative="1" as="geometry">
            <mxPoint x="227" y="312" as="sourcePoint" />
            <mxPoint x="422" y="282" as="targetPoint" />
            <Array as="points">
              <mxPoint x="227" y="282" />
              <mxPoint x="392" y="282" />
            </Array>
          </mxGeometry>
        </mxCell>
        <mxCell id="v83eA48cjaej-B-r6ZFM-65" value="parent" style="edgeLabel;resizable=0;html=1;align=left;verticalAlign=bottom;" parent="v83eA48cjaej-B-r6ZFM-64" connectable="0" vertex="1">
          <mxGeometry x="-1" relative="1" as="geometry" />
        </mxCell>
        <mxCell id="v83eA48cjaej-B-r6ZFM-66" value="child" style="edgeLabel;resizable=0;html=1;align=right;verticalAlign=bottom;" parent="v83eA48cjaej-B-r6ZFM-64" connectable="0" vertex="1">
          <mxGeometry x="1" relative="1" as="geometry" />
        </mxCell>
        <mxCell id="v83eA48cjaej-B-r6ZFM-107" value="" style="endArrow=none;html=1;edgeStyle=orthogonalEdgeStyle;rounded=0;entryX=0.5;entryY=1;entryDx=0;entryDy=0;" parent="v83eA48cjaej-B-r6ZFM-111" target="v83eA48cjaej-B-r6ZFM-56" edge="1">
          <mxGeometry relative="1" as="geometry">
            <mxPoint x="227" y="312" as="sourcePoint" />
            <mxPoint x="532" y="312" as="targetPoint" />
            <Array as="points">
              <mxPoint x="227" y="282" />
              <mxPoint x="62" y="282" />
            </Array>
          </mxGeometry>
        </mxCell>
        <mxCell id="v83eA48cjaej-B-r6ZFM-108" value="parent" style="edgeLabel;resizable=0;html=1;align=left;verticalAlign=bottom;" parent="v83eA48cjaej-B-r6ZFM-107" connectable="0" vertex="1">
          <mxGeometry x="-1" relative="1" as="geometry" />
        </mxCell>
        <mxCell id="v83eA48cjaej-B-r6ZFM-109" value="child" style="edgeLabel;resizable=0;html=1;align=right;verticalAlign=bottom;" parent="v83eA48cjaej-B-r6ZFM-107" connectable="0" vertex="1">
          <mxGeometry x="1" relative="1" as="geometry" />
        </mxCell>
        <mxCell id="v83eA48cjaej-B-r6ZFM-31" value="abstract GameState" style="swimlane;fontStyle=1;align=center;verticalAlign=top;childLayout=stackLayout;horizontal=1;startSize=26;horizontalStack=0;resizeParent=1;resizeParentMax=0;resizeLast=0;collapsible=1;marginBottom=0;whiteSpace=wrap;html=1;" parent="v83eA48cjaej-B-r6ZFM-111" vertex="1">
          <mxGeometry x="147" y="312" width="160" height="104" as="geometry" />
        </mxCell>
        <mxCell id="v83eA48cjaej-B-r6ZFM-34" value="+ Enter() : void" style="text;strokeColor=none;fillColor=none;align=left;verticalAlign=top;spacingLeft=4;spacingRight=4;overflow=hidden;rotatable=0;points=[[0,0.5],[1,0.5]];portConstraint=eastwest;whiteSpace=wrap;html=1;" parent="v83eA48cjaej-B-r6ZFM-31" vertex="1">
          <mxGeometry y="26" width="160" height="26" as="geometry" />
        </mxCell>
        <mxCell id="v83eA48cjaej-B-r6ZFM-35" value="+ Update() : void" style="text;strokeColor=none;fillColor=none;align=left;verticalAlign=top;spacingLeft=4;spacingRight=4;overflow=hidden;rotatable=0;points=[[0,0.5],[1,0.5]];portConstraint=eastwest;whiteSpace=wrap;html=1;" parent="v83eA48cjaej-B-r6ZFM-31" vertex="1">
          <mxGeometry y="52" width="160" height="26" as="geometry" />
        </mxCell>
        <mxCell id="v83eA48cjaej-B-r6ZFM-36" value="+ Exit() : void" style="text;strokeColor=none;fillColor=none;align=left;verticalAlign=top;spacingLeft=4;spacingRight=4;overflow=hidden;rotatable=0;points=[[0,0.5],[1,0.5]];portConstraint=eastwest;whiteSpace=wrap;html=1;" parent="v83eA48cjaej-B-r6ZFM-31" vertex="1">
          <mxGeometry y="78" width="160" height="26" as="geometry" />
        </mxCell>
        <mxCell id="v83eA48cjaej-B-r6ZFM-41" value="«interface»&lt;br&gt;&lt;b&gt;IFinalGameState&lt;/b&gt;" style="html=1;whiteSpace=wrap;" parent="v83eA48cjaej-B-r6ZFM-111" vertex="1">
          <mxGeometry x="177" y="32" width="110" height="50" as="geometry" />
        </mxCell>
        <mxCell id="v83eA48cjaej-B-r6ZFM-47" value="Playing" style="html=1;whiteSpace=wrap;" parent="v83eA48cjaej-B-r6ZFM-111" vertex="1">
          <mxGeometry x="117" y="202" width="110" height="50" as="geometry" />
        </mxCell>
        <mxCell id="v83eA48cjaej-B-r6ZFM-48" value="Paused" style="html=1;whiteSpace=wrap;" parent="v83eA48cjaej-B-r6ZFM-111" vertex="1">
          <mxGeometry x="227" y="202" width="110" height="50" as="geometry" />
        </mxCell>
        <mxCell id="v83eA48cjaej-B-r6ZFM-56" value="Victory" style="html=1;whiteSpace=wrap;" parent="v83eA48cjaej-B-r6ZFM-111" vertex="1">
          <mxGeometry x="7" y="202" width="110" height="50" as="geometry" />
        </mxCell>
        <mxCell id="v83eA48cjaej-B-r6ZFM-57" value="GameOver" style="html=1;whiteSpace=wrap;" parent="v83eA48cjaej-B-r6ZFM-111" vertex="1">
          <mxGeometry x="337" y="202" width="110" height="50" as="geometry" />
        </mxCell>
        <mxCell id="v83eA48cjaej-B-r6ZFM-116" style="edgeStyle=orthogonalEdgeStyle;rounded=0;orthogonalLoop=1;jettySize=auto;html=1;entryX=0;entryY=0.5;entryDx=0;entryDy=0;" parent="8QUW1PWuyOzQRffvTLw3-59" source="v83eA48cjaej-B-r6ZFM-114" target="v83eA48cjaej-B-r6ZFM-45" edge="1">
          <mxGeometry relative="1" as="geometry" />
        </mxCell>
        <mxCell id="v83eA48cjaej-B-r6ZFM-119" style="edgeStyle=orthogonalEdgeStyle;rounded=0;orthogonalLoop=1;jettySize=auto;html=1;entryX=0.5;entryY=0;entryDx=0;entryDy=0;" parent="8QUW1PWuyOzQRffvTLw3-59" source="v83eA48cjaej-B-r6ZFM-43" target="v83eA48cjaej-B-r6ZFM-111" edge="1">
          <mxGeometry relative="1" as="geometry">
            <Array as="points">
              <mxPoint x="1480" y="379" />
              <mxPoint x="1480" y="480" />
              <mxPoint x="1280" y="480" />
            </Array>
          </mxGeometry>
        </mxCell>
        <mxCell id="v83eA48cjaej-B-r6ZFM-122" value="Level : ScriptableObject" style="swimlane;fontStyle=1;align=center;verticalAlign=top;childLayout=stackLayout;horizontal=1;startSize=26;horizontalStack=0;resizeParent=1;resizeParentMax=0;resizeLast=0;collapsible=1;marginBottom=0;whiteSpace=wrap;html=1;" parent="8QUW1PWuyOzQRffvTLw3-59" vertex="1">
          <mxGeometry x="310" y="90" width="270" height="112" as="geometry" />
        </mxCell>
        <mxCell id="v83eA48cjaej-B-r6ZFM-124" value="" style="line;strokeWidth=1;fillColor=none;align=left;verticalAlign=middle;spacingTop=-1;spacingLeft=3;spacingRight=3;rotatable=0;labelPosition=right;points=[];portConstraint=eastwest;strokeColor=inherit;" parent="v83eA48cjaej-B-r6ZFM-122" vertex="1">
          <mxGeometry y="26" width="270" height="8" as="geometry" />
        </mxCell>
        <mxCell id="v83eA48cjaej-B-r6ZFM-125" value="+ LevelBuildIndex : int" style="text;strokeColor=none;fillColor=none;align=left;verticalAlign=top;spacingLeft=4;spacingRight=4;overflow=hidden;rotatable=0;points=[[0,0.5],[1,0.5]];portConstraint=eastwest;whiteSpace=wrap;html=1;" parent="v83eA48cjaej-B-r6ZFM-122" vertex="1">
          <mxGeometry y="34" width="270" height="26" as="geometry" />
        </mxCell>
        <mxCell id="v83eA48cjaej-B-r6ZFM-126" value="+ DisplayBuildIndex : int" style="text;strokeColor=none;fillColor=none;align=left;verticalAlign=top;spacingLeft=4;spacingRight=4;overflow=hidden;rotatable=0;points=[[0,0.5],[1,0.5]];portConstraint=eastwest;whiteSpace=wrap;html=1;" parent="v83eA48cjaej-B-r6ZFM-122" vertex="1">
          <mxGeometry y="60" width="270" height="26" as="geometry" />
        </mxCell>
        <mxCell id="v83eA48cjaej-B-r6ZFM-127" value="+ LevelName : string" style="text;strokeColor=none;fillColor=none;align=left;verticalAlign=top;spacingLeft=4;spacingRight=4;overflow=hidden;rotatable=0;points=[[0,0.5],[1,0.5]];portConstraint=eastwest;whiteSpace=wrap;html=1;" parent="v83eA48cjaej-B-r6ZFM-122" vertex="1">
          <mxGeometry y="86" width="270" height="26" as="geometry" />
        </mxCell>
        <mxCell id="v83eA48cjaej-B-r6ZFM-129" value="1" style="endArrow=open;html=1;endSize=12;startArrow=diamondThin;startSize=14;startFill=0;edgeStyle=orthogonalEdgeStyle;align=left;verticalAlign=bottom;rounded=0;exitX=0.25;exitY=0;exitDx=0;exitDy=0;entryX=0;entryY=0.5;entryDx=0;entryDy=0;" parent="8QUW1PWuyOzQRffvTLw3-59" source="v83eA48cjaej-B-r6ZFM-122" target="8QUW1PWuyOzQRffvTLw3-61" edge="1">
          <mxGeometry x="-1" y="3" relative="1" as="geometry">
            <mxPoint x="210" y="240" as="sourcePoint" />
            <mxPoint x="370" y="240" as="targetPoint" />
            <Array as="points">
              <mxPoint x="378" y="80" />
              <mxPoint x="70" y="80" />
              <mxPoint x="70" y="309" />
            </Array>
          </mxGeometry>
        </mxCell>
        <mxCell id="_6fXt4T8FiPyjIzf7iaG-1" value="Tanchiki.GameManagers.Objectives" style="swimlane;whiteSpace=wrap;html=1;" vertex="1" parent="8QUW1PWuyOzQRffvTLw3-59">
          <mxGeometry x="80" y="490" width="850" height="460" as="geometry" />
        </mxCell>
        <mxCell id="_6fXt4T8FiPyjIzf7iaG-15" style="edgeStyle=orthogonalEdgeStyle;rounded=0;orthogonalLoop=1;jettySize=auto;html=1;entryX=0.5;entryY=0;entryDx=0;entryDy=0;" edge="1" parent="_6fXt4T8FiPyjIzf7iaG-1" source="_6fXt4T8FiPyjIzf7iaG-2" target="_6fXt4T8FiPyjIzf7iaG-11">
          <mxGeometry relative="1" as="geometry" />
        </mxCell>
        <mxCell id="_6fXt4T8FiPyjIzf7iaG-20" style="edgeStyle=orthogonalEdgeStyle;rounded=0;orthogonalLoop=1;jettySize=auto;html=1;entryX=0.5;entryY=0;entryDx=0;entryDy=0;" edge="1" parent="_6fXt4T8FiPyjIzf7iaG-1" source="_6fXt4T8FiPyjIzf7iaG-2" target="_6fXt4T8FiPyjIzf7iaG-16">
          <mxGeometry relative="1" as="geometry" />
        </mxCell>
        <mxCell id="_6fXt4T8FiPyjIzf7iaG-2" value="Objective" style="swimlane;fontStyle=1;align=center;verticalAlign=top;childLayout=stackLayout;horizontal=1;startSize=26;horizontalStack=0;resizeParent=1;resizeParentMax=0;resizeLast=0;collapsible=1;marginBottom=0;whiteSpace=wrap;html=1;" vertex="1" parent="_6fXt4T8FiPyjIzf7iaG-1">
          <mxGeometry x="80" y="42" width="290" height="216" as="geometry" />
        </mxCell>
        <mxCell id="_6fXt4T8FiPyjIzf7iaG-3" value="- taskDescription : string" style="text;strokeColor=none;fillColor=none;align=left;verticalAlign=top;spacingLeft=4;spacingRight=4;overflow=hidden;rotatable=0;points=[[0,0.5],[1,0.5]];portConstraint=eastwest;whiteSpace=wrap;html=1;fontStyle=4" vertex="1" parent="_6fXt4T8FiPyjIzf7iaG-2">
          <mxGeometry y="26" width="290" height="26" as="geometry" />
        </mxCell>
        <mxCell id="_6fXt4T8FiPyjIzf7iaG-7" value="+ OnTaskCompleted : UnityEvent" style="text;strokeColor=none;fillColor=none;align=left;verticalAlign=top;spacingLeft=4;spacingRight=4;overflow=hidden;rotatable=0;points=[[0,0.5],[1,0.5]];portConstraint=eastwest;whiteSpace=wrap;html=1;" vertex="1" parent="_6fXt4T8FiPyjIzf7iaG-2">
          <mxGeometry y="52" width="290" height="26" as="geometry" />
        </mxCell>
        <mxCell id="_6fXt4T8FiPyjIzf7iaG-4" value="" style="line;strokeWidth=1;fillColor=none;align=left;verticalAlign=middle;spacingTop=-1;spacingLeft=3;spacingRight=3;rotatable=0;labelPosition=right;points=[];portConstraint=eastwest;strokeColor=inherit;" vertex="1" parent="_6fXt4T8FiPyjIzf7iaG-2">
          <mxGeometry y="78" width="290" height="8" as="geometry" />
        </mxCell>
        <mxCell id="_6fXt4T8FiPyjIzf7iaG-5" value="- Initialize() : void" style="text;strokeColor=none;fillColor=none;align=left;verticalAlign=top;spacingLeft=4;spacingRight=4;overflow=hidden;rotatable=0;points=[[0,0.5],[1,0.5]];portConstraint=eastwest;whiteSpace=wrap;html=1;" vertex="1" parent="_6fXt4T8FiPyjIzf7iaG-2">
          <mxGeometry y="86" width="290" height="26" as="geometry" />
        </mxCell>
        <mxCell id="_6fXt4T8FiPyjIzf7iaG-27" value="+ Description() : virtual string" style="text;strokeColor=none;fillColor=none;align=left;verticalAlign=top;spacingLeft=4;spacingRight=4;overflow=hidden;rotatable=0;points=[[0,0.5],[1,0.5]];portConstraint=eastwest;whiteSpace=wrap;html=1;" vertex="1" parent="_6fXt4T8FiPyjIzf7iaG-2">
          <mxGeometry y="112" width="290" height="26" as="geometry" />
        </mxCell>
        <mxCell id="_6fXt4T8FiPyjIzf7iaG-8" value="- Cleanup() : void" style="text;strokeColor=none;fillColor=none;align=left;verticalAlign=top;spacingLeft=4;spacingRight=4;overflow=hidden;rotatable=0;points=[[0,0.5],[1,0.5]];portConstraint=eastwest;whiteSpace=wrap;html=1;" vertex="1" parent="_6fXt4T8FiPyjIzf7iaG-2">
          <mxGeometry y="138" width="290" height="26" as="geometry" />
        </mxCell>
        <mxCell id="_6fXt4T8FiPyjIzf7iaG-10" value="- CheckIsCompleted() : void" style="text;strokeColor=none;fillColor=none;align=left;verticalAlign=top;spacingLeft=4;spacingRight=4;overflow=hidden;rotatable=0;points=[[0,0.5],[1,0.5]];portConstraint=eastwest;whiteSpace=wrap;html=1;fontStyle=4" vertex="1" parent="_6fXt4T8FiPyjIzf7iaG-2">
          <mxGeometry y="164" width="290" height="26" as="geometry" />
        </mxCell>
        <mxCell id="_6fXt4T8FiPyjIzf7iaG-9" value="- CompleteTask() : void" style="text;strokeColor=none;fillColor=none;align=left;verticalAlign=top;spacingLeft=4;spacingRight=4;overflow=hidden;rotatable=0;points=[[0,0.5],[1,0.5]];portConstraint=eastwest;whiteSpace=wrap;html=1;fontStyle=4" vertex="1" parent="_6fXt4T8FiPyjIzf7iaG-2">
          <mxGeometry y="190" width="290" height="26" as="geometry" />
        </mxCell>
        <mxCell id="_6fXt4T8FiPyjIzf7iaG-11" value="KillEnemiesObjective" style="swimlane;fontStyle=1;align=center;verticalAlign=top;childLayout=stackLayout;horizontal=1;startSize=26;horizontalStack=0;resizeParent=1;resizeParentMax=0;resizeLast=0;collapsible=1;marginBottom=0;whiteSpace=wrap;html=1;" vertex="1" parent="_6fXt4T8FiPyjIzf7iaG-1">
          <mxGeometry x="20" y="300" width="160" height="112" as="geometry" />
        </mxCell>
        <mxCell id="_6fXt4T8FiPyjIzf7iaG-12" value="- requiredKills : int" style="text;strokeColor=none;fillColor=none;align=left;verticalAlign=top;spacingLeft=4;spacingRight=4;overflow=hidden;rotatable=0;points=[[0,0.5],[1,0.5]];portConstraint=eastwest;whiteSpace=wrap;html=1;" vertex="1" parent="_6fXt4T8FiPyjIzf7iaG-11">
          <mxGeometry y="26" width="160" height="26" as="geometry" />
        </mxCell>
        <mxCell id="_6fXt4T8FiPyjIzf7iaG-22" value="- enemyTag : string" style="text;strokeColor=none;fillColor=none;align=left;verticalAlign=top;spacingLeft=4;spacingRight=4;overflow=hidden;rotatable=0;points=[[0,0.5],[1,0.5]];portConstraint=eastwest;whiteSpace=wrap;html=1;" vertex="1" parent="_6fXt4T8FiPyjIzf7iaG-11">
          <mxGeometry y="52" width="160" height="26" as="geometry" />
        </mxCell>
        <mxCell id="_6fXt4T8FiPyjIzf7iaG-21" value="- currentKills : int" style="text;strokeColor=none;fillColor=none;align=left;verticalAlign=top;spacingLeft=4;spacingRight=4;overflow=hidden;rotatable=0;points=[[0,0.5],[1,0.5]];portConstraint=eastwest;whiteSpace=wrap;html=1;" vertex="1" parent="_6fXt4T8FiPyjIzf7iaG-11">
          <mxGeometry y="78" width="160" height="26" as="geometry" />
        </mxCell>
        <mxCell id="_6fXt4T8FiPyjIzf7iaG-13" value="" style="line;strokeWidth=1;fillColor=none;align=left;verticalAlign=middle;spacingTop=-1;spacingLeft=3;spacingRight=3;rotatable=0;labelPosition=right;points=[];portConstraint=eastwest;strokeColor=inherit;" vertex="1" parent="_6fXt4T8FiPyjIzf7iaG-11">
          <mxGeometry y="104" width="160" height="8" as="geometry" />
        </mxCell>
        <mxCell id="_6fXt4T8FiPyjIzf7iaG-16" value="ReachFinishObjective" style="swimlane;fontStyle=1;align=center;verticalAlign=top;childLayout=stackLayout;horizontal=1;startSize=26;horizontalStack=0;resizeParent=1;resizeParentMax=0;resizeLast=0;collapsible=1;marginBottom=0;whiteSpace=wrap;html=1;" vertex="1" parent="_6fXt4T8FiPyjIzf7iaG-1">
          <mxGeometry x="254" y="300" width="160" height="34" as="geometry" />
        </mxCell>
        <mxCell id="_6fXt4T8FiPyjIzf7iaG-18" value="" style="line;strokeWidth=1;fillColor=none;align=left;verticalAlign=middle;spacingTop=-1;spacingLeft=3;spacingRight=3;rotatable=0;labelPosition=right;points=[];portConstraint=eastwest;strokeColor=inherit;" vertex="1" parent="_6fXt4T8FiPyjIzf7iaG-16">
          <mxGeometry y="26" width="160" height="8" as="geometry" />
        </mxCell>
        <mxCell id="_6fXt4T8FiPyjIzf7iaG-23" value="FinishTrigger" style="swimlane;fontStyle=1;align=center;verticalAlign=top;childLayout=stackLayout;horizontal=1;startSize=26;horizontalStack=0;resizeParent=1;resizeParentMax=0;resizeLast=0;collapsible=1;marginBottom=0;whiteSpace=wrap;html=1;" vertex="1" parent="_6fXt4T8FiPyjIzf7iaG-1">
          <mxGeometry x="460" y="300" width="280" height="86" as="geometry" />
        </mxCell>
        <mxCell id="_6fXt4T8FiPyjIzf7iaG-24" value="+ OnPlayerEnter : UnityEvent" style="text;strokeColor=none;fillColor=none;align=left;verticalAlign=top;spacingLeft=4;spacingRight=4;overflow=hidden;rotatable=0;points=[[0,0.5],[1,0.5]];portConstraint=eastwest;whiteSpace=wrap;html=1;" vertex="1" parent="_6fXt4T8FiPyjIzf7iaG-23">
          <mxGeometry y="26" width="280" height="26" as="geometry" />
        </mxCell>
        <mxCell id="_6fXt4T8FiPyjIzf7iaG-25" value="" style="line;strokeWidth=1;fillColor=none;align=left;verticalAlign=middle;spacingTop=-1;spacingLeft=3;spacingRight=3;rotatable=0;labelPosition=right;points=[];portConstraint=eastwest;strokeColor=inherit;" vertex="1" parent="_6fXt4T8FiPyjIzf7iaG-23">
          <mxGeometry y="52" width="280" height="8" as="geometry" />
        </mxCell>
        <mxCell id="_6fXt4T8FiPyjIzf7iaG-26" value="- OnTriggerEnter(Collider other) : void" style="text;strokeColor=none;fillColor=none;align=left;verticalAlign=top;spacingLeft=4;spacingRight=4;overflow=hidden;rotatable=0;points=[[0,0.5],[1,0.5]];portConstraint=eastwest;whiteSpace=wrap;html=1;" vertex="1" parent="_6fXt4T8FiPyjIzf7iaG-23">
          <mxGeometry y="60" width="280" height="26" as="geometry" />
        </mxCell>
        <mxCell id="8QUW1PWuyOzQRffvTLw3-69" style="edgeStyle=orthogonalEdgeStyle;rounded=0;orthogonalLoop=1;jettySize=auto;html=1;entryX=0.5;entryY=1;entryDx=0;entryDy=0;" parent="1" source="8QUW1PWuyOzQRffvTLw3-65" target="8QUW1PWuyOzQRffvTLw3-67" edge="1">
          <mxGeometry relative="1" as="geometry" />
        </mxCell>
        <mxCell id="8QUW1PWuyOzQRffvTLw3-72" style="edgeStyle=orthogonalEdgeStyle;rounded=0;orthogonalLoop=1;jettySize=auto;html=1;entryX=0;entryY=0.5;entryDx=0;entryDy=0;" parent="1" source="8QUW1PWuyOzQRffvTLw3-49" target="8QUW1PWuyOzQRffvTLw3-66" edge="1">
          <mxGeometry relative="1" as="geometry" />
        </mxCell>
        <mxCell id="8QUW1PWuyOzQRffvTLw3-73" style="edgeStyle=orthogonalEdgeStyle;rounded=0;orthogonalLoop=1;jettySize=auto;html=1;entryX=0;entryY=0.5;entryDx=0;entryDy=0;" parent="1" source="8QUW1PWuyOzQRffvTLw3-66" target="8QUW1PWuyOzQRffvTLw3-16" edge="1">
          <mxGeometry relative="1" as="geometry" />
        </mxCell>
        <mxCell id="v83eA48cjaej-B-r6ZFM-1" style="edgeStyle=orthogonalEdgeStyle;rounded=0;orthogonalLoop=1;jettySize=auto;html=1;entryX=0;entryY=0.5;entryDx=0;entryDy=0;" parent="1" source="8QUW1PWuyOzQRffvTLw3-58" target="8QUW1PWuyOzQRffvTLw3-65" edge="1">
          <mxGeometry relative="1" as="geometry" />
        </mxCell>
        <mxCell id="v83eA48cjaej-B-r6ZFM-121" style="edgeStyle=orthogonalEdgeStyle;rounded=0;orthogonalLoop=1;jettySize=auto;html=1;entryX=0;entryY=0.5;entryDx=0;entryDy=0;" parent="1" source="v83eA48cjaej-B-r6ZFM-8" target="v83eA48cjaej-B-r6ZFM-115" edge="1">
          <mxGeometry relative="1" as="geometry">
            <Array as="points">
              <mxPoint x="1000" y="847" />
              <mxPoint x="1000" y="1439" />
            </Array>
          </mxGeometry>
        </mxCell>
        <mxCell id="v83eA48cjaej-B-r6ZFM-128" value="1" style="endArrow=open;html=1;endSize=12;startArrow=diamondThin;startSize=14;startFill=0;edgeStyle=orthogonalEdgeStyle;align=left;verticalAlign=bottom;rounded=0;exitX=1;exitY=0.5;exitDx=0;exitDy=0;entryX=0.5;entryY=0;entryDx=0;entryDy=0;" parent="1" source="8QUW1PWuyOzQRffvTLw3-23" target="v83eA48cjaej-B-r6ZFM-122" edge="1">
          <mxGeometry x="-1" y="3" relative="1" as="geometry">
            <mxPoint x="170" y="1110" as="sourcePoint" />
            <mxPoint x="330" y="1110" as="targetPoint" />
          </mxGeometry>
        </mxCell>
        <mxCell id="8QUW1PWuyOzQRffvTLw3-67" value="YG2.saves" style="html=1;whiteSpace=wrap;" parent="1" vertex="1">
          <mxGeometry x="-360" y="930" width="110" height="50" as="geometry" />
        </mxCell>
      </root>
    </mxGraphModel>
  </diagram>
</mxfile>
